# xmcd CD database file
#
# Track frame offsets:
#	150
#	28497
#	78282
#	117310
#	151883
#	186376
#	229801
#
# Disc length: 3685 seconds
#
# Revision: 0
# Processed by: cddbd v1.5.2PL0 Copyright (c) Steve Scherf et al.
# Submitted via: CDex 1.81
#
DISCID=560e6307
DTITLE=Manhattan Jazz Quintet - Document MJQ Japan Tour 2013 [Disc 1]
DYEAR=2013
DGENRE=Jazz
TTITLE0=Samba De Orfeu
TTITLE1=Take Five
TTITLE2=Blues March
TTITLE3=Concierto De Aranjuez
TTITLE4=Black Orfeu
TTITLE5=Song For My Father
TTITLE6=Manteca
EXTD=YEAR: 2013
EXTT0=
EXTT1=
EXTT2=
EXTT3=
EXTT4=
EXTT5=
EXTT6=
PLAYORDER=
